<?xml version="1.0" standalone="no"?>
<!DOCTYPE svg PUBLIC "-//W3C//DTD SVG 20010904//EN"
 "http://www.w3.org/TR/2001/REC-SVG-20010904/DTD/svg10.dtd">
<svg version="1.0" xmlns="http://www.w3.org/2000/svg"
 width="1157.000000pt" height="1026.000000pt" viewBox="0 0 1157.000000 1026.000000"
 preserveAspectRatio="xMidYMid meet">
<metadata>
Created by potrace 1.16, written by Peter Selinger 2001-2019
</metadata>
<g transform="translate(0.000000,1026.000000) scale(0.100000,-0.100000)"
fill="#000000" stroke="none">
<path d="M7495 10206 c-627 -223 -1271 -643 -1756 -1143 -438 -452 -635 -849
-684 -1376 l-7 -68 -74 148 c-110 222 -235 379 -434 545 -252 212 -476 348
-1085 660 -187 96 -387 203 -444 239 -241 150 -342 294 -391 559 -32 175 -41
187 -97 128 -132 -142 -255 -452 -313 -790 -153 -901 11 -2043 388 -2697 117
-204 285 -400 461 -540 l83 -66 -183 -6 c-248 -9 -396 -40 -639 -136 -261
-103 -528 -252 -1013 -567 -430 -279 -565 -352 -705 -381 -133 -29 -261 -14
-441 51 -53 19 -109 34 -125 34 -27 0 -28 -2 -23 -36 9 -54 78 -189 149 -289
81 -115 319 -354 468 -469 606 -468 1411 -820 2115 -922 181 -27 501 -25 661
4 149 27 294 69 413 121 50 22 88 34 84 28 -4 -7 -21 -34 -39 -62 -144 -227
-225 -494 -265 -870 -17 -162 -14 -647 6 -995 20 -358 17 -660 -9 -755 -41
-150 -123 -268 -281 -404 -109 -94 -117 -114 -52 -132 64 -18 304 -15 422 6
762 134 1799 793 2362 1500 256 323 414 687 449 1039 l7 68 32 -68 c74 -160
181 -307 322 -447 130 -128 246 -220 433 -342 201 -132 339 -209 759 -424 190
-98 389 -203 441 -235 270 -165 361 -297 419 -610 12 -60 25 -114 30 -119 43
-43 200 210 279 448 270 810 164 2162 -230 2949 -139 277 -334 517 -557 684
-82 62 -83 63 -45 56 63 -12 353 -9 434 5 221 37 467 124 725 256 201 102 341
187 725 435 333 215 428 272 541 324 200 93 379 93 622 0 140 -54 153 -47 112
61 -100 266 -416 596 -845 882 -590 393 -1304 674 -1903 748 -158 19 -435 19
-576 0 -147 -21 -330 -72 -473 -133 -65 -27 -118 -48 -118 -46 0 2 24 41 54
86 181 280 261 578 287 1068 10 205 8 304 -17 803 -19 369 -15 681 11 772 31
112 92 213 185 306 47 47 105 102 130 122 l45 36 -355 0 -355 0 -120 -43z
m369 -173 c-80 -105 -142 -262 -169 -427 -19 -117 -19 -186 2 -376 25 -225 24
-775 0 -955 -69 -505 -215 -913 -458 -1285 -110 -169 -210 -292 -353 -435
-126 -125 -201 -177 -338 -232 -241 -98 -574 -79 -887 48 -52 21 -96 37 -98
35 -8 -8 164 -127 267 -185 263 -149 525 -217 734 -191 173 21 317 88 766 355
606 360 899 480 1264 517 298 31 780 -72 1263 -268 268 -109 775 -382 928
-499 77 -59 333 -294 347 -319 7 -13 -3 -14 -80 -9 -205 13 -444 -58 -634
-189 -423 -291 -534 -359 -780 -478 -458 -220 -877 -320 -1338 -320 -452 0
-850 96 -1107 266 -236 157 -423 510 -459 867 -4 37 -10 64 -15 60 -17 -17
-30 -297 -20 -429 21 -267 69 -427 178 -592 97 -146 214 -232 658 -482 324
-183 409 -233 540 -321 363 -242 596 -495 725 -788 208 -471 310 -1040 310
-1731 0 -190 -4 -261 -19 -352 -21 -118 -59 -290 -87 -386 l-17 -56 -19 49
c-29 74 -118 202 -192 277 -94 95 -187 161 -311 220 -466 224 -572 282 -790
429 -514 346 -892 791 -1110 1303 -112 266 -155 455 -155 692 0 257 108 497
328 726 53 55 131 126 174 159 49 36 72 59 61 59 -29 0 -278 -128 -374 -192
-223 -148 -377 -322 -452 -509 -56 -141 -60 -193 -62 -804 -1 -364 -6 -600
-14 -675 -27 -249 -71 -442 -140 -615 -161 -402 -648 -899 -1266 -1292 -163
-104 -422 -254 -492 -284 -89 -39 -463 -159 -495 -159 -5 0 9 26 30 57 144
213 192 445 157 768 -23 216 -31 632 -16 821 37 462 166 908 364 1261 124 221
314 477 429 577 146 128 346 246 473 280 239 62 536 33 803 -81 46 -19 85 -33
88 -30 6 5 -104 87 -190 142 -84 54 -287 150 -379 179 -210 68 -439 74 -592
15 -152 -59 -253 -113 -600 -319 -515 -306 -747 -413 -1062 -486 -107 -25
-136 -28 -308 -29 -215 0 -312 13 -570 75 -423 102 -832 278 -1321 566 -172
101 -259 169 -427 334 l-129 125 115 -3 c133 -4 248 14 369 58 111 41 189 85
358 205 247 174 488 319 689 412 605 283 1182 370 1781 272 144 -24 203 -42
353 -109 155 -69 247 -124 326 -196 176 -161 285 -376 356 -699 l6 -30 -38 37
c-59 58 -64 45 -6 -14 28 -29 54 -64 58 -78 l8 -25 10 25 c14 37 13 391 -2
485 -19 122 -57 257 -95 339 -105 227 -219 322 -741 616 -543 305 -729 434
-943 651 -142 145 -244 295 -324 480 -135 314 -229 705 -273 1139 -22 214 -31
718 -16 844 13 98 65 343 96 449 l17 59 39 -79 c104 -212 289 -377 557 -498
669 -300 1130 -644 1485 -1106 228 -298 416 -703 502 -1084 37 -161 41 -242
21 -345 -42 -204 -158 -403 -340 -585 -61 -61 -137 -128 -169 -150 -32 -22
-54 -41 -48 -43 19 -6 275 123 378 191 237 156 401 346 467 540 45 134 49 194
51 782 1 355 6 600 14 670 60 559 200 850 610 1269 315 321 748 636 1211 879
126 66 354 146 587 206 2 1 -13 -20 -33 -46z"/>
</g>
</svg>
